<svg xmlns="http://www.w3.org/2000/svg" width="506.667" height="256" viewBox="0 0 380 192"><g fill="#fefdfe"><path d="M0 0h380v192H0V0m48.7 6.38c3.26 1.77 6.6 3.4 9.98 4.94l315.5 142.66.14-140c-.16-2.1.2-4.44-.87-6.35-1.6-1.74-4.25-1.22-6.36-1.44-106.13.22-212.26-.16-318.38.2M41.76 8.8c-5.2 3.18-8.58 8.56-11 14-2.05 4.86-3.7 10.36-2.1 15.6 1 3.7 5.5 5.9 9.08 4.5 4.67-1.63 7.67-5.97 9.4-10.4l-4.6-2.28-2.94 5.22-5.74-2.4c2.6-6.5 5.9-12.66 9.06-18.9l4.83 1.95-2.7 6.93 5.9 2.62c1.6-4.42 3.88-9.5 1.58-14.08-1.85-3.94-7.22-5.1-10.77-2.77m21.43 7.24c-6.85 10.1-14.5 19.66-21 30 1.45.65 2.93 1.26 4.43 1.82l4.54-6.27 3.7 1.58-1.7 7.8 5.8 2.57c2.66-7.48 4.5-15.2 6.87-22.78 1.3-4.06 2.4-8.18 3.13-12.38l-5.78-2.36m12.97 7.05l-16 31.7L64 56.9c3.58-6.5 6.33-13.43 9.95-19.92-1.62 7.03-4.46 13.7-6.03 20.73l4.22 1.83c4.74-5.9 8.47-12.5 12.88-18.63-2.47 7.14-6.48 13.6-9.2 20.66l4.3 1.94 14.83-31.68-6.62-3.08c-3.9 5.74-7.26 11.84-11.47 17.36 1.43-6.82 4.2-13.24 6.05-19.94l-6.74-3.08m-69.9 9.14L6.2 179.07c.17 1.96-.24 4.85 2.15 5.6 4.8.98 9.77.38 14.64.5h312c2.47-.02 4.93-.12 7.4-.27-11.14-5.94-22.95-10.53-34.34-15.96L6.25 32.23M84 64.65l5.15 2.2c2.54-4.82 4.78-9.8 7-14.77 2.6-5.9 5.96-11.44 8.06-17.55L99 32.46C94 43.18 88.66 53.77 84 64.65m25.22-25.43c-3.74 2.25-6.14 6.07-8.26 9.77-2.84 5.24-5.33 10.98-5.3 17.04 0 2.85 1.2 6.65 4.57 6.9 3.28.47 6.58.86 9.72 2 2.83-4.88 5.3-9.95 7.63-15.07-3.02-1.73-6.17-3.23-9.54-4.14-.78 3.67-.02 7.35.4 11a144.05 144.05 0 0 1-6.96-2.49c2.58-6.5 5.66-12.8 8.76-19.07l4.5 2.1-.64 5.82 5.15 2.53c1.55-4 3.5-8.44 2-12.75-1.75-4.56-8-6.14-12-3.64m19.1 5.98l-9.58 20.54c-1.6 3.98-3.4 8.36-2.25 12.7 1.12 3.68 5.6 5.55 9.13 4.26 4.38-1.4 6.53-5.85 8.52-9.6 3.23-6.72 6.5-13.44 9.4-20.3-1.5-.68-3-1.3-4.52-1.9-3.88 8.25-7.37 16.7-11.9 24.65a162.66 162.66 0 0 1-4.53-2.43c3.23-8.5 7.56-16.55 10.93-25l-5.2-2.9m18.82 9.13c-4.82 10.86-10.3 21.4-15.1 32.26l5.2 2c5.46-10.4 10.13-21.23 15.32-31.8l-5.4-2.47M150 71c-3.06 6.56-6.87 12.8-9.16 19.7l3.85 1.13c3.06-6.08 5.75-12.37 9.3-18.2-.27 7.35-1.65 14.6-1.85 21.96l5.14 2.06c2.23-4 4.22-8.12 6.13-12.27 2.9-6.36 6.57-12.38 8.72-19.06l-3.87-1.24c-2.7 5.76-5.1 11.66-8.2 17.23.3-7.1 1.4-14.14 1.9-21.23l-5.18-2.83c-2.67 4.02-4.74 8.4-6.78 12.75m32.9 3.96c-3.4 3.73-5.66 8.88-5.04 13.98.9 3.82 4.92 5.4 7.8 7.48l-2.4 5.67c-1.4-.6-2.83-1.13-4.1-1.98-.7-1.6-.83-3.4-1.67-4.93-1.33-1-2.86-1.7-4.33-2.47-.85 3.28-2.2 6.73-1.25 10.15 1.8 5.28 9.08 8.27 13.74 4.75 4.43-3.33 7.23-8.96 7.13-14.5-.14-4.73-4.86-7.05-8.27-9.36l2.04-5.03c1.3.5 2.63.96 3.85 1.67 1.82.8.66 3.14.9 4.67l4.85 2.62c1.14-3.4 3.02-7.36.98-10.8-3-4.36-10.46-6.28-14.26-1.9m23.56 7.53c-5.06 2.04-7.87 7.14-10.14 11.8-2.43 5.36-4.84 11.28-3.74 17.27.6 3.92 4.82 7.3 8.76 5.78 4.73-1.9 8.07-6.1 10.66-10.33 3.24-5.7 6.32-12.24 5.3-18.98-.7-4.88-6.53-7.37-10.84-5.54m17.78 6.2c-2.95 5.67-5.63 11.47-8.26 17.3-1.92 4.43-4.23 9-4.06 13.95.06 4.74 5.63 7.93 9.86 6.1 4.53-1.8 6.66-6.55 8.74-10.6 3.02-6.42 6.12-12.8 8.82-19.35l-4.55-1.74c-3.84 8.25-7.32 16.67-11.82 24.6l-4.42-2.1c2.9-8.66 7.2-16.72 10.82-25.08l-5.13-3.08m18.93 9.26l-15.27 31.8c4.1 2.4 8.37 4.56 12.8 6.3l3.4-7.66-6.97-3.47 11.74-25.05-5.72-1.93m14.27 6.93c-4.6 10.57-9.84 20.82-14.7 31.26 3.63 2.3 7.66 5.14 12.2 4.2 5.56-1.3 8.7-6.6 11.33-11.2 2.9-5.22 5.54-11.63 3.08-17.53-2.18-4.5-7.5-5.64-11.92-6.72m19.83 8.2c-5.03 10.84-10.52 21.47-15.25 32.44l5.18 1.96c5.36-10.42 10.08-21.16 15.26-31.67l-5.2-2.73m7.76 2.8c-3.94 11.63-7.54 23.38-10.97 35.16l5.42 2.75c6.8-10.24 14.66-19.8 20.62-30.55l-3.9-1.44c-4.55 6.7-8.47 13.8-13.37 20.26 1.8-8.2 5.16-15.93 7.5-23.98l-5.3-2.2m13.78 15c-3.5 9-8.36 17.38-12.33 26.17 5.23 2.26 10.3 4.88 15.46 7.3l3.75-8.5-10.88-5.03 2.17-4.9c3.14 1.05 6.23 2.25 9.3 3.5l2.8-6.17-6.5-3.6 2.4-5.76c3.16 1 6.3 2.1 9.4 3.22l2.6-5.74c-4.88-2.06-9.7-4.54-14.95-5.45-1.88.8-2.3 3.3-3.24 4.95m21.15 2.1c-5.48 10.53-10.45 21.32-15.83 31.9l4.9 1.73 5.78-11.25 4.58 2.47c-1.7 3.98-3.32 8-4.72 12.1l5.3 3c2.78-5.53 5.5-11.28 5.57-17.6 4.72-3.3 9.23-8.98 7.3-15.05-2.47-4.72-8.38-5.52-12.9-7.3m17.35 11.32c-3.5 3.57-5.8 8.57-5.57 13.62.44 4.3 4.93 6.14 7.95 8.47l-2.83 5.82c-2.2-1.2-4.15-2.87-4.64-5.46-.46-2.5-3.2-3.1-5.08-4.22-.75 3.05-2.02 6.2-1.4 9.38 1.16 5.8 8.9 9.05 13.76 5.56 4.48-3.24 7.3-8.82 7.26-14.34-.18-4.9-5.03-7.35-8.3-10.2l2.67-4.58c1.8.94 3.86 1.87 4.1 4.15.22 2.74 2.68 3.93 4.84 5.07 1.27-3.58 3.28-8 .75-11.5-3.17-3.64-9.7-5.52-13.5-1.8z"/><path d="M54.98 35.15c2.1-3.55 4.36-7 6.86-10.26-.94 3.74-2.08 7.42-3.2 11.1l-3.66-.84zm142.76 72.6c1.98-6.4 4.9-12.43 8.18-18.26l6.03 3.37c-2.82 5.98-5.68 11.94-8.9 17.7l-5.3-2.82zm54.14 23.9c1.95-6 4.74-11.7 7.93-17.14l4.7 2.56c-2.23 5.5-4.88 10.8-7.76 15.97a129.69 129.69 0 0 1-4.87-1.39zm67.22 17.42l3.83-7.6 4.5 2.47-3.5 7.03-4.82-1.9z"/></g><path d="M48.7 6.38l318.38-.2c2.1.22 4.76-.3 6.36 1.44 1.07 1.9.7 4.24.87 6.35l-.14 140L58.68 11.32a149.12 149.12 0 0 1-9.98-4.94zm14.5 9.66l5.78 2.36c-.72 4.2-1.84 8.32-3.13 12.38-2.37 7.57-4.2 15.3-6.87 22.78L53.16 51l1.7-7.8-3.7-1.58-4.54 6.27c-1.5-.56-2.98-1.17-4.43-1.82 6.5-10.35 14.14-19.9 21-30M55 35.17l3.66.84c1.12-3.68 2.26-7.36 3.2-11.1-2.5 3.27-4.77 6.7-6.86 10.26zM76.16 23.1l6.74 3.08c-1.84 6.7-4.62 13.12-6.05 19.94 4.2-5.52 7.58-11.62 11.47-17.36l6.62 3.08L80.1 63.5l-4.3-1.94c2.7-7.05 6.72-13.52 9.2-20.66-4.4 6.13-8.14 12.73-12.88 18.63L67.9 57.7c1.57-7.03 4.4-13.7 6.03-20.73-3.62 6.5-6.37 13.42-9.95 19.92l-3.82-2.1c5.07-10.7 10.76-21.1 16-31.7zm-69.9 9.13l301.8 136.7c11.4 5.43 23.2 10.02 34.34 15.96-2.47.15-4.93.25-7.4.27-104-.01-208-.01-312 0-4.87-.12-9.83.48-14.64-.5-2.4-.74-1.98-3.63-2.15-5.6l.04-146.84zM84 64.65c4.66-10.88 10-21.47 15-32.2l5.2 2.06c-2.1 6.1-5.45 11.66-8.06 17.55-2.22 4.97-4.46 9.95-7 14.77L84 64.65zm25.2-25.43c4.02-2.5 10.26-.92 12 3.64 1.5 4.3-.44 8.75-2 12.75l-5.15-2.53.64-5.82-4.5-2.1c-3.1 6.27-6.18 12.56-8.76 19.07a144.05 144.05 0 0 0 6.96 2.49c-.4-3.65-1.17-7.33-.4-11 3.37.9 6.52 2.4 9.54 4.14-2.34 5.12-4.8 10.2-7.63 15.07-3.14-1.14-6.44-1.53-9.72-2-3.37-.24-4.57-4.04-4.57-6.9-.02-6.06 2.47-11.8 5.3-17.04 2.12-3.7 4.52-7.52 8.26-9.77zm19.12 5.98l5.2 2.9c-3.37 8.45-7.7 16.5-10.93 25a162.66 162.66 0 0 0 4.53 2.43c4.52-7.94 8-16.4 11.9-24.65 1.52.58 3.03 1.2 4.52 1.9-2.9 6.87-6.16 13.6-9.4 20.3-2 3.76-4.14 8.22-8.52 9.6-3.53 1.3-8-.58-9.13-4.26-1.16-4.34.65-8.72 2.25-12.7 3.07-6.9 6.32-13.73 9.58-20.54zm18.82 9.13l5.4 2.47c-5.2 10.56-9.86 21.38-15.32 31.8l-5.2-2c4.8-10.86 10.3-21.4 15.1-32.26zM150 71c2.04-4.36 4.1-8.73 6.78-12.75l5.18 2.83c-.5 7.1-1.6 14.12-1.9 21.23 3.1-5.57 5.5-11.47 8.2-17.23l3.87 1.24c-2.15 6.68-5.83 12.7-8.72 19.06-1.9 4.15-3.9 8.27-6.13 12.27l-5.14-2.06c.2-7.35 1.58-14.6 1.85-21.96-3.54 5.83-6.23 12.12-9.3 18.2l-3.85-1.13c2.3-6.9 6.1-13.14 9.16-19.7zm56.46 11.5c4.3-1.83 10.14.66 10.84 5.54 1.02 6.74-2.06 13.27-5.3 18.98-2.6 4.24-5.93 8.42-10.66 10.33-3.94 1.53-8.17-1.86-8.76-5.78-1.1-6 1.3-11.9 3.74-17.27 2.27-4.66 5.08-9.76 10.14-11.8m-8.72 25.27l5.3 2.82c3.23-5.77 6.1-11.73 8.9-17.7l-6.03-3.37c-3.27 5.83-6.2 11.87-8.18 18.26zm26.5-19.07l5.13 3.08c-3.6 8.36-7.93 16.42-10.82 25.08l4.42 2.1c4.5-7.93 7.98-16.35 11.82-24.6l4.55 1.74c-2.7 6.56-5.8 12.93-8.82 19.35-2.08 4.05-4.2 8.8-8.74 10.6-4.23 1.84-9.8-1.35-9.86-6.1-.17-4.96 2.14-9.52 4.06-13.95 2.63-5.83 5.3-11.63 8.26-17.3zm18.93 9.25l5.72 1.93c-3.7 8.45-7.93 16.65-11.74 25.05l6.97 3.47-3.4 7.66c-4.44-1.74-8.7-3.9-12.8-6.3 4.83-10.72 10.2-21.2 15.27-31.8zm14.27 6.93c4.4 1.08 9.74 2.23 11.92 6.72 2.46 5.9-.2 12.3-3.08 17.53-2.64 4.6-5.77 9.92-11.33 11.2-4.55.94-8.58-1.9-12.2-4.2l14.7-31.26m-5.56 26.77a129.69 129.69 0 0 0 4.87 1.39c2.88-5.18 5.53-10.48 7.76-15.97l-4.7-2.56c-3.2 5.44-5.98 11.13-7.93 17.14zm25.38-18.54l5.2 2.73-15.26 31.67-5.18-1.96c4.73-10.97 10.22-21.6 15.25-32.44zm7.76 2.8l5.3 2.2c-2.33 8.05-5.7 15.78-7.5 23.98 4.9-6.45 8.82-13.57 13.37-20.26l3.9 1.44c-5.96 10.76-13.83 20.3-20.62 30.55l-5.42-2.75c3.43-11.78 7.03-23.53 10.97-35.16zm13.77 15c.95-1.66 1.36-4.15 3.24-4.95 5.25.9 10.07 3.4 14.95 5.45l-2.6 5.74c-3.12-1.13-6.25-2.23-9.4-3.22l-2.4 5.76 6.5 3.6-2.8 6.17c-3.08-1.25-6.17-2.45-9.3-3.5l-2.17 4.9c3.6 1.73 7.24 3.37 10.88 5.03l-3.75 8.5c-5.16-2.43-10.23-5.05-15.46-7.3 3.97-8.8 8.83-17.16 12.33-26.17zm21.16 2.1c4.52 1.8 10.43 2.6 12.9 7.3 1.92 6.07-2.6 11.76-7.3 15.05-.07 6.32-2.8 12.07-5.57 17.6l-5.3-3c1.4-4.1 3.02-8.12 4.72-12.1l-4.58-2.47c-2 3.72-3.88 7.5-5.78 11.25l-4.9-1.73 15.83-31.9m-.87 16.06l4.82 1.9 3.5-7.03a180.02 180.02 0 0 0-4.49-2.47c-1.32 2.5-2.6 5.05-3.83 7.6zm18.2-4.73c3.8-3.73 10.34-1.85 13.5 1.8 2.53 3.5.52 7.9-.75 11.5-2.16-1.14-4.62-2.33-4.84-5.07-.23-2.28-2.3-3.2-4.1-4.15l-2.67 4.58c3.26 2.84 8.1 5.3 8.3 10.2.04 5.52-2.78 11.1-7.26 14.34-4.85 3.5-12.6.23-13.76-5.56-.62-3.2.65-6.33 1.4-9.38 1.88 1.1 4.62 1.73 5.08 4.22.5 2.6 2.43 4.26 4.64 5.46l2.83-5.82c-3.02-2.33-7.5-4.18-7.95-8.47-.24-5.05 2.08-10.05 5.57-13.62z" fill="#eb1c24"/><path d="M41.76 8.8c3.55-2.32 8.92-1.17 10.77 2.77 2.3 4.58.01 9.66-1.58 14.08l-5.9-2.62 2.7-6.93-4.83-1.95c-3.17 6.23-6.46 12.4-9.06 18.9l5.74 2.4 2.94-5.22 4.6 2.28c-1.74 4.43-4.74 8.77-9.4 10.4-3.58 1.4-8.07-.8-9.08-4.5-1.6-5.24.06-10.74 2.1-15.6 2.4-5.45 5.8-10.83 11-14zM182.9 74.96c3.8-4.37 11.27-2.45 14.26 1.9 2.04 3.44.16 7.4-.98 10.8l-4.85-2.62c-.25-1.53.9-3.86-.9-4.67-1.22-.7-2.55-1.16-3.85-1.67l-2.04 5.03c3.4 2.3 8.13 4.63 8.27 9.36.1 5.55-2.7 11.18-7.13 14.5-4.66 3.52-11.95.53-13.74-4.75-.95-3.42.4-6.87 1.25-10.15 1.47.78 3 1.47 4.33 2.47.84 1.54.98 3.33 1.67 4.93 1.27.85 2.7 1.38 4.1 1.98l2.4-5.67c-2.9-2.08-6.92-3.66-7.8-7.48-.62-5.1 1.65-10.25 5.04-13.98z" fill="#060709"/></svg>